<svg xmlns="http://www.w3.org/2000/svg" width="1200" height="760" viewBox="0 0 1200 760" role="img" aria-labelledby="title desc">
  <title id="title">先暴露服务，再进行分流</title>
  <desc id="desc">Docker-VPN 先建立 HKU 隧道并暴露本机 1080 和 1088 端口。端口就绪后，应用可以直接引用，也可以通过 Surge 或 Clash 规则引用。运行时，HKU 流量进入 Docker-VPN，AI 流量则可以由独立规则直连或进入现有代理。</desc>
  <defs>
    <clipPath id="rounded-icon" clipPathUnits="objectBoundingBox">
      <rect width="1" height="1" rx="0.18"/>
    </clipPath>
    <style>
      .title { font: 700 28px -apple-system, BlinkMacSystemFont, 'PingFang SC', 'Segoe UI', sans-serif; fill: #0f172a; }
      .subtitle { font: 400 16px -apple-system, BlinkMacSystemFont, 'PingFang SC', 'Segoe UI', sans-serif; fill: #475569; }
      .section { font: 700 12px -apple-system, BlinkMacSystemFont, 'PingFang SC', 'Segoe UI', sans-serif; fill: #475569; }
      .heading { font: 700 18px -apple-system, BlinkMacSystemFont, 'PingFang SC', 'Segoe UI', sans-serif; fill: #0f172a; }
      .body { font: 500 14px -apple-system, BlinkMacSystemFont, 'PingFang SC', 'Segoe UI', sans-serif; fill: #334155; }
      .small { font: 500 12px -apple-system, BlinkMacSystemFont, 'PingFang SC', 'Segoe UI', sans-serif; fill: #64748b; }
      .mono { font: 600 12px ui-monospace, SFMono-Regular, Menlo, monospace; fill: #0f172a; }
      .arrow { fill: none; stroke: #334155; stroke-width: 2.25; stroke-linecap: round; stroke-linejoin: round; }
      .setup-arrow { fill: none; stroke: #64748b; stroke-width: 2.25; stroke-linecap: round; stroke-dasharray: 7 6; }
      .arrow-tip { fill: #334155; }
    </style>
  </defs>

  <rect x="1" y="1" width="1198" height="758" rx="8" fill="#ffffff" stroke="#cbd5e1" stroke-width="2"/>
  <text x="40" y="48" class="title">先暴露服务，再进行分流</text>
  <text x="40" y="76" class="subtitle">Docker-VPN 先建立 HKU 隧道并开放本地端口；应用或规则客户端随后引用这些端口</text>

  <rect x="40" y="101" width="88" height="24" rx="12" fill="#e2e8f0"/>
  <text x="84" y="117" text-anchor="middle" class="section">配置阶段</text>
  <line x1="140" y1="113" x2="1160" y2="113" stroke="#e2e8f0" stroke-width="2"/>

  <rect x="40" y="133" width="420" height="194" rx="9" fill="#ecfdf5" stroke="#047857" stroke-width="3"/>
  <rect x="61" y="150" width="154" height="24" rx="12" fill="#047857"/>
  <text x="138" y="166" text-anchor="middle" style="font: 700 11px -apple-system, BlinkMacSystemFont, 'PingFang SC', 'Segoe UI', sans-serif; fill: #ffffff;">1 · 启动 DOCKER-VPN</text>
  <image href="docker-vpn-icon.png" x="62" y="200" width="64" height="64" clip-path="url(#rounded-icon)"/>
  <text x="145" y="203" class="heading" style="font-size: 20px;">Docker-VPN / OpenConnect</text>
  <text x="145" y="226" class="small">隧道与本地监听端口就绪</text>
  <rect x="145" y="240" width="287" height="30" rx="6" fill="#ffffff" stroke="#a7f3d0"/>
  <text x="161" y="260" class="mono">SOCKS5  127.0.0.1:1080</text>
  <rect x="145" y="277" width="287" height="30" rx="6" fill="#ffffff" stroke="#a7f3d0"/>
  <text x="161" y="297" class="mono">HTTP    127.0.0.1:1088</text>

  <path d="M460 230 H508" class="setup-arrow"/>
  <path d="M508 226 L516 230 L508 234 Z" class="arrow-tip"/>
  <rect x="470" y="197" width="48" height="22" rx="11" fill="#ffffff" stroke="#cbd5e1"/>
  <text x="494" y="212" text-anchor="middle" class="small">就绪</text>

  <rect x="520" y="133" width="640" height="194" rx="9" fill="#eff6ff" stroke="#2563eb" stroke-width="2"/>
  <rect x="541" y="150" width="225" height="24" rx="12" fill="#2563eb"/>
  <text x="653" y="166" text-anchor="middle" style="font: 700 11px -apple-system, BlinkMacSystemFont, 'PingFang SC', 'Segoe UI', sans-serif; fill: #ffffff;">2 · 端口就绪后配置客户端</text>
  <rect x="541" y="191" width="280" height="111" rx="7" fill="#ffffff"/>
  <circle cx="569" cy="219" r="15" fill="#475569"/>
  <text x="569" y="224" text-anchor="middle" style="font: 700 13px -apple-system, BlinkMacSystemFont, 'PingFang SC', 'Segoe UI', sans-serif; fill: #ffffff;">A</text>
  <text x="594" y="225" class="heading">应用直接设置</text>
  <text x="561" y="258" class="body">在应用内填写其中一个本地代理</text>
  <text x="561" y="281" class="small">不需要 Surge 或 Clash</text>
  <rect x="840" y="191" width="299" height="111" rx="7" fill="#ffffff"/>
  <circle cx="868" cy="219" r="15" fill="#2563eb"/>
  <text x="868" y="224" text-anchor="middle" style="font: 700 13px -apple-system, BlinkMacSystemFont, 'PingFang SC', 'Segoe UI', sans-serif; fill: #ffffff;">B</text>
  <text x="893" y="225" class="heading">规则客户端设置</text>
  <image href="brands/surge.png" x="862" y="247" width="40" height="40" clip-path="url(#rounded-icon)"/>
  <image href="brands/clash-verge-rev.png" x="912" y="247" width="40" height="40" clip-path="url(#rounded-icon)"/>
  <text x="965" y="263" class="body">添加 HKU 本地上游</text>
  <text x="965" y="284" class="small">Surge · Clash · 其他客户端</text>

  <rect x="40" y="355" width="150" height="24" rx="12" fill="#e2e8f0"/>
  <text x="115" y="371" text-anchor="middle" class="section">配置完成后的流量</text>
  <line x1="202" y1="367" x2="1160" y2="367" stroke="#e2e8f0" stroke-width="2"/>

  <rect x="40" y="421" width="170" height="206" rx="8" fill="#f8fafc" stroke="#94a3b8" stroke-width="2"/>
  <text x="125" y="453" text-anchor="middle" class="heading">应用请求</text>
  <circle cx="76" cy="502" r="20" fill="#e0f2fe" stroke="#0284c7" stroke-width="1.5"/>
  <circle cx="76" cy="502" r="10" fill="none" stroke="#0284c7" stroke-width="2"/>
  <path d="M66 502 H86 M76 492 C71 497 71 507 76 512 M76 492 C81 497 81 507 76 512" fill="none" stroke="#0284c7" stroke-width="1.5"/>
  <rect x="105" y="482" width="40" height="40" rx="8" fill="#111827"/>
  <text x="125" y="508" text-anchor="middle" style="font: 700 14px ui-monospace, SFMono-Regular, Menlo, monospace; fill: #ffffff;">&gt;_</text>
  <image href="brands/windows-app.png" x="160" y="482" width="40" height="40" clip-path="url(#rounded-icon)"/>
  <text x="125" y="558" text-anchor="middle" class="body">使用上方设置</text>
  <text x="125" y="581" text-anchor="middle" class="small">处理不同目标</text>

  <rect x="250" y="405" width="235" height="92" rx="8" fill="#f8fafc" stroke="#64748b" stroke-width="2"/>
  <circle cx="277" cy="435" r="15" fill="#475569"/>
  <text x="277" y="440" text-anchor="middle" style="font: 700 13px -apple-system, BlinkMacSystemFont, 'PingFang SC', 'Segoe UI', sans-serif; fill: #ffffff;">A</text>
  <text x="302" y="441" class="heading">已配置的应用</text>
  <text x="273" y="473" class="small">需要 HKU 时使用应用代理设置</text>

  <rect x="250" y="528" width="235" height="116" rx="8" fill="#eff6ff" stroke="#2563eb" stroke-width="2"/>
  <circle cx="277" cy="558" r="15" fill="#2563eb"/>
  <text x="277" y="563" text-anchor="middle" style="font: 700 13px -apple-system, BlinkMacSystemFont, 'PingFang SC', 'Segoe UI', sans-serif; fill: #ffffff;">B</text>
  <text x="302" y="564" class="heading">规则客户端</text>
  <image href="brands/surge.png" x="273" y="580" width="40" height="40" clip-path="url(#rounded-icon)"/>
  <image href="brands/clash-verge-rev.png" x="323" y="580" width="40" height="40" clip-path="url(#rounded-icon)"/>
  <text x="380" y="593" class="body">执行规则</text>
  <text x="380" y="616" class="small">选择上游</text>

  <rect x="540" y="405" width="280" height="174" rx="9" fill="#ecfdf5" stroke="#047857" stroke-width="3"/>
  <image href="docker-vpn-icon.png" x="560" y="424" width="64" height="64" clip-path="url(#rounded-icon)"/>
  <text x="640" y="445" class="heading">HKU 本地上游</text>
  <text x="640" y="470" class="small">即第一步启动的同一个服务</text>
  <rect x="560" y="505" width="240" height="38" rx="6" fill="#ffffff" stroke="#a7f3d0"/>
  <text x="580" y="529" class="mono">:1080  或  :1088</text>
  <text x="680" y="562" text-anchor="middle" class="small">流量在这里进入 OpenConnect</text>

  <rect x="950" y="405" width="210" height="174" rx="8" fill="#fff1f2" stroke="#e11d48" stroke-width="2"/>
  <image href="brands/hku-shield.png" x="1023" y="422" width="64" height="64" clip-path="url(#rounded-icon)"/>
  <text x="1055" y="522" text-anchor="middle" class="heading">HKU 资源</text>
  <text x="1055" y="547" text-anchor="middle" class="small">图书馆 · SSH · 远程桌面</text>

  <rect x="540" y="615" width="280" height="86" rx="8" fill="#fff7ed" stroke="#ea580c" stroke-width="2"/>
  <text x="680" y="645" text-anchor="middle" class="heading">客户端其他策略</text>
  <text x="680" y="676" text-anchor="middle" class="body">DIRECT / 现有外部代理</text>

  <rect x="850" y="615" width="310" height="86" rx="8" fill="#fefce8" stroke="#ca8a04" stroke-width="2"/>
  <image href="brands/claude.jpg" x="870" y="630" width="40" height="40" clip-path="url(#rounded-icon)"/>
  <image href="brands/chatgpt.png" x="940" y="630" width="40" height="40" clip-path="url(#rounded-icon)"/>
  <image href="brands/codex.png" x="1010" y="630" width="40" height="40" clip-path="url(#rounded-icon)"/>
  <text x="890" y="691" text-anchor="middle" class="small">Claude</text>
  <text x="960" y="691" text-anchor="middle" class="small">ChatGPT</text>
  <text x="1030" y="691" text-anchor="middle" class="small">Codex</text>
  <text x="1110" y="657" text-anchor="middle" class="body">AI</text>
  <text x="1110" y="678" text-anchor="middle" class="small">示例服务</text>

  <path d="M210 477 C228 477 228 451 238 451" class="arrow"/>
  <path d="M238 447 L246 451 L238 455 Z" class="arrow-tip"/>
  <path d="M210 554 C228 554 228 586 238 586" class="arrow"/>
  <path d="M238 582 L246 586 L238 590 Z" class="arrow-tip"/>
  <path d="M485 451 H528" class="arrow"/>
  <path d="M528 447 L536 451 L528 455 Z" class="arrow-tip"/>
  <path d="M485 568 C510 568 510 530 528 530" class="arrow"/>
  <path d="M528 526 L536 530 L528 534 Z" class="arrow-tip"/>
  <path d="M820 492 H938" class="arrow"/>
  <path d="M938 488 L946 492 L938 496 Z" class="arrow-tip"/>
  <rect x="827" y="460" width="116" height="22" rx="11" fill="#ffffff" stroke="#cbd5e1"/>
  <text x="885" y="475" text-anchor="middle" class="small">HKU VPN 流量</text>
  <path d="M485 630 C510 630 510 658 528 658" class="arrow"/>
  <path d="M528 654 L536 658 L528 662 Z" class="arrow-tip"/>
  <path d="M820 658 H838" class="arrow"/>
  <path d="M838 654 L846 658 L838 662 Z" class="arrow-tip"/>

  <rect x="40" y="718" width="1120" height="24" rx="6" fill="#f1f5f9"/>
  <text x="600" y="735" text-anchor="middle" class="body">按图示规则，HKU 与 AI 流量使用彼此独立的上游，互不干扰</text>
</svg>
