<svg xmlns="http://www.w3.org/2000/svg" width="1200" height="560" viewBox="0 0 1200 560" role="img" aria-labelledby="title desc">
  <title id="title">Docker-VPN 选择性分流架构</title>
  <desc id="desc">应用流量先经过分流规则。HKU 流量进入 Docker 内的 OpenConnect 隧道，其余流量继续使用普通网络或已有代理。</desc>
  <defs>
    <marker id="arrow" viewBox="0 0 10 10" refX="9" refY="5" markerWidth="7" markerHeight="7" orient="auto-start-reverse">
      <path d="M 0 0 L 10 5 L 0 10 z" fill="#334155"/>
    </marker>
    <clipPath id="rounded-icon" clipPathUnits="objectBoundingBox">
      <rect width="1" height="1" rx="0.18"/>
    </clipPath>
    <style>
      .title { font: 700 28px -apple-system, BlinkMacSystemFont, 'PingFang SC', 'Segoe UI', sans-serif; fill: #0f172a; }
      .subtitle { font: 400 16px -apple-system, BlinkMacSystemFont, 'PingFang SC', 'Segoe UI', sans-serif; fill: #475569; }
      .heading { font: 700 18px -apple-system, BlinkMacSystemFont, 'PingFang SC', 'Segoe UI', sans-serif; fill: #0f172a; }
      .body { font: 500 14px -apple-system, BlinkMacSystemFont, 'PingFang SC', 'Segoe UI', sans-serif; fill: #334155; }
      .small { font: 500 12px -apple-system, BlinkMacSystemFont, 'PingFang SC', 'Segoe UI', sans-serif; fill: #64748b; }
      .mono { font: 600 13px ui-monospace, SFMono-Regular, Menlo, monospace; fill: #0f172a; }
      .arrow { fill: none; stroke: #334155; stroke-width: 2.5; marker-end: url(#arrow); }
    </style>
  </defs>

  <rect x="1" y="1" width="1198" height="558" rx="8" fill="#ffffff" stroke="#cbd5e1" stroke-width="2"/>
  <text x="40" y="48" class="title">选择性分流，一图看懂</text>
  <text x="40" y="76" class="subtitle">一台电脑，两条互不干扰的网络路径</text>

  <rect x="40" y="150" width="210" height="260" rx="8" fill="#f8fafc" stroke="#94a3b8" stroke-width="2"/>
  <text x="145" y="187" text-anchor="middle" class="heading">应用与工具</text>
  <circle cx="76" cy="225" r="25" fill="#e0f2fe" stroke="#0284c7" stroke-width="1.5"/>
  <circle cx="76" cy="225" r="13" fill="none" stroke="#0284c7" stroke-width="2"/>
  <path d="M63 225 H89 M76 212 C70 219 70 231 76 238 M76 212 C82 219 82 231 76 238" fill="none" stroke="#0284c7" stroke-width="1.5"/>
  <rect x="119" y="200" width="50" height="50" rx="9" fill="#111827"/>
  <text x="144" y="232" text-anchor="middle" style="font: 700 16px ui-monospace, SFMono-Regular, Menlo, monospace; fill: #ffffff;">&gt;_</text>
  <image href="brands/windows-app.png" x="184" y="200" width="50" height="50" clip-path="url(#rounded-icon)"/>
  <text x="76" y="276" text-anchor="middle" class="small">浏览器</text>
  <text x="144" y="276" text-anchor="middle" class="small">SSH</text>
  <text x="209" y="276" text-anchor="middle" class="small">远程桌面</text>
  <rect x="63" y="310" width="164" height="58" rx="6" fill="#ffffff"/>
  <text x="145" y="335" text-anchor="middle" class="body">按目标选择路径</text>
  <text x="145" y="357" text-anchor="middle" class="small">无需切换系统级 VPN</text>

  <rect x="300" y="150" width="220" height="260" rx="8" fill="#eff6ff" stroke="#2563eb" stroke-width="2"/>
  <circle cx="334" cy="188" r="15" fill="#2563eb"/>
  <path d="M327 188 L332 193 L342 181" fill="none" stroke="#ffffff" stroke-width="3" stroke-linecap="round" stroke-linejoin="round"/>
  <text x="360" y="194" class="heading">分流规则</text>
  <rect x="324" y="220" width="172" height="48" rx="5" fill="#ffffff"/>
  <text x="338" y="240" class="body">HKU 域名</text>
  <text x="338" y="258" class="small">与精确校园网段</text>
  <rect x="324" y="282" width="172" height="48" rx="5" fill="#ffffff"/>
  <text x="338" y="302" class="body">其余流量</text>
  <text x="338" y="320" class="small">保持原有规则</text>
  <text x="410" y="374" text-anchor="middle" class="small">Surge · Clash · 应用设置</text>

  <rect x="610" y="112" width="245" height="150" rx="8" fill="#fff7ed" stroke="#ea580c" stroke-width="2"/>
  <circle cx="645" cy="151" r="16" fill="#ea580c"/>
  <path d="M637 151 H653 M645 143 V159" stroke="#ffffff" stroke-width="3" stroke-linecap="round"/>
  <text x="672" y="157" class="heading">普通路径</text>
  <text x="635" y="194" class="body">直接连接，或使用</text>
  <text x="635" y="218" class="body">已有代理客户端</text>
  <text x="635" y="244" class="mono">例如 :6152</text>

  <rect x="610" y="315" width="245" height="170" rx="8" fill="#ecfdf5" stroke="#059669" stroke-width="2"/>
  <rect x="634" y="343" width="48" height="48" rx="6" fill="#059669"/>
  <path d="M646 355 H670 V379 H646 Z M652 361 H664 M652 368 H664 M652 375 H660" fill="none" stroke="#ffffff" stroke-width="2"/>
  <text x="700" y="367" class="heading">Docker-VPN</text>
  <text x="634" y="420" class="body">容器内运行 OpenConnect</text>
  <text x="634" y="448" class="mono">SOCKS5 :1080</text>
  <text x="750" y="448" class="mono">HTTP :1088</text>
  <text x="634" y="474" class="small">主机默认路由保持不变</text>

  <rect x="950" y="112" width="210" height="150" rx="8" fill="#fefce8" stroke="#ca8a04" stroke-width="2"/>
  <image href="brands/claude.jpg" x="970" y="128" width="46" height="46" clip-path="url(#rounded-icon)"/>
  <image href="brands/chatgpt.png" x="1032" y="128" width="46" height="46" clip-path="url(#rounded-icon)"/>
  <image href="brands/codex.png" x="1094" y="128" width="46" height="46" clip-path="url(#rounded-icon)"/>
  <text x="993" y="192" text-anchor="middle" class="small">Claude</text>
  <text x="1055" y="192" text-anchor="middle" class="small">ChatGPT</text>
  <text x="1117" y="192" text-anchor="middle" class="small">Codex</text>
  <text x="1055" y="226" text-anchor="middle" class="heading">AI 与外部服务</text>
  <text x="1055" y="248" text-anchor="middle" class="small">网页 · 下载 · Coding Agent</text>

  <rect x="950" y="315" width="210" height="170" rx="8" fill="#fff1f2" stroke="#e11d48" stroke-width="2"/>
  <image href="brands/hku-shield.png" x="970" y="332" width="74" height="74" clip-path="url(#rounded-icon)"/>
  <rect x="1063" y="347" width="76" height="46" rx="7" fill="#111827"/>
  <text x="1101" y="376" text-anchor="middle" style="font: 700 14px ui-monospace, SFMono-Regular, Menlo, monospace; fill: #ffffff;">&gt;_ SSH</text>
  <text x="1055" y="433" text-anchor="middle" class="heading">HKU 资源</text>
  <text x="1055" y="458" text-anchor="middle" class="small">图书馆 · SSH · 远程桌面</text>

  <path d="M250 280 H300" class="arrow"/>
  <path d="M520 245 C560 245 565 187 610 187" class="arrow"/>
  <path d="M520 316 C560 316 565 400 610 400" class="arrow"/>
  <path d="M855 187 H950" class="arrow"/>
  <path d="M855 400 H950" class="arrow"/>
  <rect x="535" y="158" width="72" height="24" rx="12" fill="#ffffff" stroke="#cbd5e1"/>
  <text x="571" y="174" text-anchor="middle" class="small">其他流量</text>
  <rect x="535" y="359" width="72" height="24" rx="12" fill="#ffffff" stroke="#cbd5e1"/>
  <text x="571" y="375" text-anchor="middle" class="small">仅 HKU</text>

  <rect x="40" y="512" width="1120" height="28" rx="6" fill="#f1f5f9"/>
  <text x="600" y="531" text-anchor="middle" class="body">无需反复开关 AnyConnect · 不接管全局路由</text>
</svg>
